<svg xmlns="http://www.w3.org/2000/svg" width="1200" height="630" viewBox="0 0 1200 630" role="img" aria-labelledby="title desc">
  <title id="title">WaveMind dynamic memory</title>
  <desc id="desc">A minimal black and white diagram showing how WaveMind stores memories, searches candidates, applies memory state, and returns useful recall.</desc>
  <defs>
    <marker id="arrow" markerWidth="12" markerHeight="12" refX="10" refY="6" orient="auto">
      <path d="M2 2 L10 6 L2 10" fill="none" stroke="#111111" stroke-width="2" stroke-linecap="round" stroke-linejoin="round"/>
    </marker>
    <style>
      .font { font-family: Inter, Segoe UI, Arial, sans-serif; }
      .title { font-size: 64px; font-weight: 850; fill: #050505; }
      .subtitle { font-size: 24px; fill: #222222; }
      .label { font-size: 15px; font-weight: 800; fill: #050505; letter-spacing: 1px; }
      .boxTitle { font-size: 25px; font-weight: 800; fill: #050505; }
      .boxText { font-size: 17px; fill: #333333; }
      .small { font-size: 14px; fill: #333333; }
      .tiny { font-size: 12px; fill: #444444; }
      .box { fill: #ffffff; stroke: #111111; stroke-width: 2; }
      .chip { fill: #ffffff; stroke: #111111; stroke-width: 1.6; }
      .line { stroke: #111111; stroke-width: 2.4; fill: none; stroke-linecap: round; stroke-linejoin: round; }
      .thin { stroke: #111111; stroke-width: 1.4; fill: none; stroke-linecap: round; stroke-linejoin: round; }
    </style>
  </defs>

  <rect width="1200" height="630" fill="#ffffff"/>
  <rect x="36" y="34" width="1128" height="562" rx="18" fill="#ffffff" stroke="#111111" stroke-width="2"/>

  <g class="font">
    <text class="title" x="72" y="110">WaveMind</text>
    <text class="subtitle" x="76" y="150">Local-first dynamic memory for software that needs to remember what still matters.</text>
  </g>

  <g class="font" transform="translate(74 205)">
    <text class="label" x="0" y="-22">ONE MEMORY FLOW</text>

    <rect class="box" x="0" y="0" width="210" height="170" rx="12"/>
    <text class="boxTitle" x="28" y="44">1. Store</text>
    <text class="boxText" x="28" y="78">Text, vectors, tags,</text>
    <text class="boxText" x="28" y="104">TTL, priority, and</text>
    <text class="boxText" x="28" y="130">metadata in SQLite.</text>

    <line class="line" x1="230" y1="85" x2="260" y2="85" marker-end="url(#arrow)"/>

    <rect class="box" x="285" y="0" width="210" height="170" rx="12"/>
    <text class="boxTitle" x="313" y="44">2. Search</text>
    <text class="boxText" x="313" y="78">Find vector</text>
    <text class="boxText" x="313" y="104">candidates with</text>
    <text class="boxText" x="313" y="130">local or external index.</text>

    <line class="line" x1="515" y1="85" x2="545" y2="85" marker-end="url(#arrow)"/>

    <rect class="box" x="570" y="0" width="210" height="170" rx="12"/>
    <text class="boxTitle" x="598" y="44">3. Re-rank</text>
    <text class="boxText" x="598" y="78">Apply memory state:</text>
    <text class="boxText" x="598" y="104">hotness, decay,</text>
    <text class="boxText" x="598" y="130">priority, and scope.</text>

    <line class="line" x1="800" y1="85" x2="830" y2="85" marker-end="url(#arrow)"/>

    <rect class="box" x="855" y="0" width="210" height="170" rx="12"/>
    <text class="boxTitle" x="883" y="44">4. Recall</text>
    <text class="boxText" x="883" y="78">Return a small</text>
    <text class="boxText" x="883" y="104">ranked context</text>
    <text class="boxText" x="883" y="130">set to the app.</text>
  </g>

  <g class="font" transform="translate(74 425)">
    <text class="label" x="0" y="-24">WHAT THE FIELD ADDS</text>

    <rect class="chip" x="0" y="0" width="160" height="58" rx="10"/>
    <circle cx="28" cy="29" r="8" fill="#111111"/>
    <text class="small" x="50" y="24" font-weight="800">hot memory</text>
    <text class="tiny" x="50" y="43">used facts rise</text>

    <rect class="chip" x="180" y="0" width="160" height="58" rx="10"/>
    <circle cx="208" cy="29" r="8" fill="#ffffff" stroke="#111111" stroke-width="2"/>
    <text class="small" x="230" y="24" font-weight="800">decay</text>
    <text class="tiny" x="230" y="43">stale facts fade</text>

    <rect class="chip" x="360" y="0" width="160" height="58" rx="10"/>
    <path class="thin" d="M388 18 V40 M378 28 H398"/>
    <text class="small" x="410" y="24" font-weight="800">TTL</text>
    <text class="tiny" x="410" y="43">temporary expires</text>

    <rect class="chip" x="540" y="0" width="160" height="58" rx="10"/>
    <path class="thin" d="M568 20 L586 38 M586 20 L568 38"/>
    <text class="small" x="608" y="24" font-weight="800">forget</text>
    <text class="tiny" x="608" y="43">delete on purpose</text>

    <rect class="chip" x="720" y="0" width="180" height="58" rx="10"/>
    <path class="thin" d="M748 34 C758 16 778 16 788 34"/>
    <text class="small" x="810" y="24" font-weight="800">corrections</text>
    <text class="tiny" x="810" y="43">new beats stale</text>

    <rect class="chip" x="920" y="0" width="145" height="58" rx="10"/>
    <rect x="948" y="19" width="18" height="18" fill="#ffffff" stroke="#111111" stroke-width="2"/>
    <text class="small" x="980" y="24" font-weight="800">scope</text>
    <text class="tiny" x="980" y="43">no leakage</text>
  </g>

  <g class="font" transform="translate(74 540)">
    <line class="thin" x1="0" y1="0" x2="1065" y2="0"/>
    <text class="small" x="0" y="34">SQLite source of truth. Optional FAISS, Qdrant, pgvector, Annoy, FastAPI, CLI, LangChain, backups, audit log, metrics, and traces.</text>
  </g>
</svg>
